<svg width="32" height="32" viewBox="0 0 32 32" fill="none" xmlns="http://www.w3.org/2000/svg">
  <!-- Container/Folder (Database of Docs) -->
  <path d="M4 8C4 6.89543 4.89543 6 6 6H14L18 10H26C27.1046 10 28 10.8954 28 12V24C28 25.1046 27.1046 26 26 26H6C4.89543 26 4 25.1046 4 24V8Z" fill="#1E3A8A"/>
  
  <!-- Magnifying Glass (The Retrieval) -->
  <circle cx="21" cy="18" r="5" stroke="#60A5FA" stroke-width="2.5"/>
  <path d="M25 22L29 26" stroke="#60A5FA" stroke-width="2.5" stroke-linecap="round"/>

  <!-- The Answer/Insight (The Synthesis) -->
  <path d="M11 14.5L12.5 17.5L15.5 19L12.5 20.5L11 23.5L9.5 20.5L6.5 19L9.5 17.5L11 14.5Z" fill="#FBBF24"/>
</svg>
